<svg width="29" height="26" viewBox="0 0 29 26" fill="none" xmlns="http://www.w3.org/2000/svg">
<path d="M28 14.3333C28 15.8133 26.7985 17 25.3 17H3.7C2.215 17 1 15.8133 1 14.3333C1 12.8533 2.215 11.6667 3.7 11.6667H15.85L19.225 14.3333L22.6 11.6667H25.3C26.7985 11.6667 28 12.8667 28 14.3333ZM14.5 1C2.35 1 2.35 9 2.35 9H26.65C26.65 9 26.65 1 14.5 1ZM2.35 21C2.35 23.2133 4.159 25 6.4 25H22.6C24.841 25 26.65 23.2133 26.65 21V19.6667H2.35V21Z" fill="#FF35D3"/>
<path d="M28 14.3333C28 15.8133 26.7985 17 25.3 17H3.7C2.215 17 1 15.8133 1 14.3333C1 12.8533 2.215 11.6667 3.7 11.6667H15.85L19.225 14.3333L22.6 11.6667H25.3C26.7985 11.6667 28 12.8667 28 14.3333ZM14.5 1C2.35 1 2.35 9 2.35 9H26.65C26.65 9 26.65 1 14.5 1ZM2.35 21C2.35 23.2133 4.159 25 6.4 25H22.6C24.841 25 26.65 23.2133 26.65 21V19.6667H2.35V21Z" stroke="#30003C" stroke-width="2"/>
<path d="M28 14.3333C28 15.8133 26.7985 17 25.3 17H3.7C2.215 17 1 15.8133 1 14.3333C1 12.8533 2.215 11.6667 3.7 11.6667H15.85L19.225 14.3333L22.6 11.6667H25.3C26.7985 11.6667 28 12.8667 28 14.3333ZM14.5 1C2.35 1 2.35 9 2.35 9H26.65C26.65 9 26.65 1 14.5 1ZM2.35 21C2.35 23.2133 4.159 25 6.4 25H22.6C24.841 25 26.65 23.2133 26.65 21V19.6667H2.35V21Z" stroke="black" stroke-opacity="0.2" stroke-width="2"/>
</svg>
