<svg width="469" height="485" viewBox="0 0 469 485" fill="none" xmlns="http://www.w3.org/2000/svg">
<g filter="url(#filter0_d_56_41)">
<path fill-rule="evenodd" clip-rule="evenodd" d="M341.575 370C398.746 335.163 436.63 274.259 436.63 204.951C436.63 96.7301 344.267 9 230.332 9C116.397 9 24.0338 96.7301 24.0338 204.951C24.0338 274.259 61.917 335.163 119.088 370H341.575ZM250.248 400H210.416C216.97 400.596 223.613 400.901 230.332 400.901C237.05 400.901 243.694 400.596 250.248 400Z" fill="url(#paint0_radial_56_41)" fill-opacity="0.95"/>
<path fill-rule="evenodd" clip-rule="evenodd" d="M434.964 228.425C435.749 221.965 436.206 215.41 436.32 208.775H25.438C25.5514 215.41 26.0086 221.965 26.7935 228.425H434.964ZM28.8554 241.525C30.1485 248.199 31.7944 254.756 33.7738 261.175H427.984C429.963 254.756 431.609 248.199 432.902 241.525H28.8554ZM47.3396 293.925C43.983 287.565 40.9772 281.008 38.3465 274.275H423.411C420.781 281.008 417.775 287.565 414.418 293.925H47.3396ZM57.0402 310.3C61.5631 317.147 66.5161 323.709 71.8629 329.95H389.895C395.242 323.709 400.195 317.147 404.718 310.3H57.0402ZM118.45 370C108.762 363.932 99.6432 357.102 91.1856 349.6H370.572C362.115 357.102 352.995 363.932 343.308 370H118.45ZM26.7935 182.575C26.0086 189.035 25.5514 195.59 25.438 202.225H436.32C436.206 195.59 435.749 189.035 434.964 182.575H26.7935ZM27.2205 179.3C40.6141 83.1628 126.69 9 230.879 9C335.067 9 421.144 83.1628 434.537 179.3H27.2205Z" fill="url(#paint1_linear_56_41)" fill-opacity="0.95"/>
<path d="M10 199.529C10 195.111 13.5817 191.529 18 191.529H445.47C449.889 191.529 453.47 195.111 453.47 199.529V237.215C453.47 241.633 449.889 245.215 445.47 245.215H18C13.5817 245.215 10 241.633 10 237.215V199.529Z" fill="url(#paint2_linear_56_41)"/>
<path d="M10 199.529C10 195.111 13.5817 191.529 18 191.529H445.47C449.889 191.529 453.47 195.111 453.47 199.529V237.215C453.47 241.633 449.889 245.215 445.47 245.215H18C13.5817 245.215 10 241.633 10 237.215V199.529Z" fill="url(#paint3_radial_56_41)" fill-opacity="0.3"/>
<g style="mix-blend-mode:overlay">
<path d="M340.111 213.295L302.353 192.741L377.87 192.741L340.111 213.295Z" fill="#E7DF25"/>
</g>
</g>
<line x1="229.591" y1="405.498" x2="246.591" y2="483.498" stroke="#FF3D00" stroke-width="10"/>
<g filter="url(#filter1_d_56_41)">
<path fill-rule="evenodd" clip-rule="evenodd" d="M11.1098 381.454L463.165 343.3L464.43 358.294L438.523 381.109L467.888 399.259L468.405 405.384L16.3497 443.538L15.4584 432.978L41.3659 410.163L12.001 392.013L11.1098 381.454Z" fill="#FF3D00"/>
<path d="M145.561 416.967L131.198 418.18L128.113 381.63L133.578 381.169L136.25 412.837L145.149 412.086L145.561 416.967ZM163.834 412.485C163.998 414.431 163.092 415.488 161.115 415.655L151.539 416.463C149.531 416.632 148.444 415.744 148.28 413.798L146.782 396.048C146.618 394.102 147.54 393.044 149.548 392.875L159.124 392.066C161.101 391.9 162.172 392.789 162.336 394.735L163.834 412.485ZM158.475 411.408L157.235 396.718L152.167 397.146L153.407 411.836L158.475 411.408ZM182.962 410.871C183.126 412.817 182.219 413.873 180.242 414.04L170.97 414.823C168.962 414.992 167.875 414.104 167.711 412.158L166.213 394.408C166.049 392.462 166.971 391.404 168.979 391.235L178.251 390.452C180.228 390.285 181.299 391.175 181.463 393.121L181.937 398.726L176.728 399.166L176.386 395.102L171.598 395.506L172.838 410.196L177.625 409.792L177.245 405.285L182.453 404.845L182.962 410.871ZM202.265 412.181L197.151 412.613L197.082 411.796C195.883 412.085 194.684 412.374 193.486 412.664C191.917 413.031 190.72 413.25 189.895 413.319C187.949 413.484 186.895 412.608 186.733 410.693L186.016 402.192C185.852 400.246 186.774 399.188 188.782 399.019L195.999 398.41L195.541 392.991L190.427 393.423L190.711 396.786L185.876 397.194L185.504 392.78C185.34 390.834 186.262 389.776 188.27 389.607L197.308 388.844C199.286 388.677 200.356 389.566 200.521 391.513L202.265 412.181ZM196.838 408.359L196.304 402.03L191.19 402.461L191.74 408.977L196.838 408.359ZM211.514 411.401L206.259 411.844L203.174 375.295L208.429 374.851L211.514 411.401ZM220.902 410.608L215.647 411.052L212.562 374.502L217.817 374.059L220.902 410.608ZM238.879 385.335L234.936 409.118L233.423 418.231L227.958 418.692L229.668 409.68L221.714 386.784L227.202 386.321L231.617 401.566L233.414 385.796L238.879 385.335ZM271.463 402.978C271.651 405.204 270.631 406.411 268.405 406.599L256.915 407.569C254.75 407.752 253.574 406.73 253.386 404.503L250.867 374.656C250.678 372.414 251.689 371.2 253.9 371.013L265.32 370.049C267.547 369.862 268.754 370.889 268.944 373.131L269.602 380.931L264.114 381.394L263.568 374.925L256.445 375.526L258.737 402.687L265.86 402.086L264.997 391.857L260.933 392.2L260.541 387.552L270.093 386.746L271.463 402.978ZM289.573 390.982L284.271 391.43L283.816 386.035L279.597 386.485L281.203 405.519L275.855 405.97L273.864 382.382L279.212 381.931L279.285 382.795C280.374 382.499 281.454 382.204 282.527 381.91C283.831 381.565 284.926 381.355 285.814 381.28C287.76 381.115 288.814 381.991 288.976 383.906L289.573 390.982ZM309.052 400.228C309.217 402.175 308.31 403.231 306.333 403.398L296.757 404.206C294.749 404.376 293.662 403.487 293.498 401.541L292 383.792C291.836 381.846 292.758 380.788 294.766 380.618L304.342 379.81C306.319 379.643 307.39 380.533 307.554 382.479L309.052 400.228ZM303.693 399.152L302.453 384.462L297.385 384.89L298.625 399.58L303.693 399.152ZM334.516 377.263L331.443 401.326L326.772 401.72L323.124 388.88L321.68 402.15L317.056 402.54L309.994 379.333L315.108 378.901L318.949 393.748L320.223 378.47L324.287 378.127L328.104 392.975L329.401 377.695L334.516 377.263ZM354.887 399.3L349.515 399.753L347.901 380.626L342.887 381.143L344.494 400.177L339.146 400.629L337.155 377.041L342.503 376.589L342.576 377.453C343.804 377.146 345.026 376.847 346.24 376.556C347.745 376.178 348.988 375.948 349.969 375.865C351.915 375.701 352.969 376.576 353.13 378.491L354.887 399.3Z" fill="#30003C"/>
</g>
<defs>
<filter id="filter0_d_56_41" x="0" y="0" width="453.47" height="400.901" filterUnits="userSpaceOnUse" color-interpolation-filters="sRGB">
<feFlood flood-opacity="0" result="BackgroundImageFix"/>
<feColorMatrix in="SourceAlpha" type="matrix" values="0 0 0 0 0 0 0 0 0 0 0 0 0 0 0 0 0 0 127 0" result="hardAlpha"/>
<feOffset dx="-6" dy="-5"/>
<feGaussianBlur stdDeviation="2"/>
<feComposite in2="hardAlpha" operator="out"/>
<feColorMatrix type="matrix" values="0 0 0 0 0 0 0 0 0 0 0 0 0 0 0 0 0 0 0.25 0"/>
<feBlend mode="normal" in2="BackgroundImageFix" result="effect1_dropShadow_56_41"/>
<feBlend mode="normal" in="SourceGraphic" in2="effect1_dropShadow_56_41" result="shape"/>
</filter>
<filter id="filter1_d_56_41" x="1.10976" y="337.3" width="467.295" height="108.238" filterUnits="userSpaceOnUse" color-interpolation-filters="sRGB">
<feFlood flood-opacity="0" result="BackgroundImageFix"/>
<feColorMatrix in="SourceAlpha" type="matrix" values="0 0 0 0 0 0 0 0 0 0 0 0 0 0 0 0 0 0 127 0" result="hardAlpha"/>
<feOffset dx="-6" dy="-2"/>
<feGaussianBlur stdDeviation="2"/>
<feComposite in2="hardAlpha" operator="out"/>
<feColorMatrix type="matrix" values="0 0 0 0 0 0 0 0 0 0 0 0 0 0 0 0 0 0 0.25 0"/>
<feBlend mode="normal" in2="BackgroundImageFix" result="effect1_dropShadow_56_41"/>
<feBlend mode="normal" in="SourceGraphic" in2="effect1_dropShadow_56_41" result="shape"/>
</filter>
<radialGradient id="paint0_radial_56_41" cx="0" cy="0" r="1" gradientUnits="userSpaceOnUse" gradientTransform="translate(230.332 204.951) rotate(90) scale(195.951 206.298)">
<stop offset="0.78125" stop-color="#FF3559"/>
<stop offset="1" stop-color="#FF35D3" stop-opacity="0"/>
</radialGradient>
<linearGradient id="paint1_linear_56_41" x1="230.879" y1="9" x2="230.879" y2="402" gradientUnits="userSpaceOnUse">
<stop offset="0.0208333" stop-color="#FF3535"/>
<stop offset="0.276042" stop-color="#FF35D3"/>
<stop offset="0.890625" stop-color="#57006C"/>
</linearGradient>
<linearGradient id="paint2_linear_56_41" x1="231.735" y1="191.529" x2="231.735" y2="245.215" gradientUnits="userSpaceOnUse">
<stop stop-color="#FF3535"/>
<stop offset="1" stop-color="#30003C"/>
</linearGradient>
<radialGradient id="paint3_radial_56_41" cx="0" cy="0" r="1" gradientUnits="userSpaceOnUse" gradientTransform="translate(444.053 218.372) rotate(-180) scale(446.895 3544)">
<stop stop-color="#30003C"/>
<stop offset="0.5" stop-color="#FF3559"/>
<stop offset="1" stop-color="#30003C"/>
</radialGradient>
</defs>
</svg>
